<mxfile host="65bd71144e">
    <diagram id="Bz2Nu-mnMBvlXORejfEb" name="Page-1">
        <mxGraphModel dx="4529" dy="2711" grid="1" gridSize="10" guides="1" tooltips="1" connect="1" arrows="1" fold="1" page="1" pageScale="1" pageWidth="850" pageHeight="1100" math="0" shadow="0">
            <root>
                <mxCell id="0"/>
                <mxCell id="1" parent="0"/>
                <mxCell id="13" value="&lt;font style=&quot;font-size: 23px&quot;&gt;Display[2:0]&lt;/font&gt;" style="text;html=1;align=center;verticalAlign=middle;resizable=0;points=[];autosize=1;strokeColor=none;" parent="1" vertex="1">
                    <mxGeometry x="970" y="330" width="140" height="20" as="geometry"/>
                </mxCell>
                <mxCell id="14" value="&lt;div style=&quot;background-color: rgb(34, 36, 54); font-family: consolas, &amp;quot;courier new&amp;quot;, monospace; font-size: 23px; line-height: 16px;&quot;&gt;Output[5:0]&lt;/div&gt;" style="text;html=1;align=center;verticalAlign=middle;resizable=0;points=[];autosize=1;strokeColor=none;fontColor=#FFFFFF;" parent="1" vertex="1">
                    <mxGeometry x="915" y="-570" width="150" height="20" as="geometry"/>
                </mxCell>
                <mxCell id="16" value="&lt;div style=&quot;background-color: rgb(34, 36, 54); font-family: consolas, &amp;quot;courier new&amp;quot;, monospace; line-height: 16px;&quot;&gt;&lt;font style=&quot;font-size: 23px&quot;&gt;State[3:0]&lt;/font&gt;&lt;/div&gt;" style="text;html=1;align=center;verticalAlign=middle;resizable=0;points=[];autosize=1;strokeColor=none;fontColor=#FFFFFF;" parent="1" vertex="1">
                    <mxGeometry x="645" y="110" width="140" height="20" as="geometry"/>
                </mxCell>
                <mxCell id="17" value="" style="whiteSpace=wrap;html=1;aspect=fixed;" parent="1" vertex="1">
                    <mxGeometry x="490" y="70" width="80" height="80" as="geometry"/>
                </mxCell>
                <mxCell id="18" value="" style="endArrow=none;html=1;" parent="1" edge="1">
                    <mxGeometry width="50" height="50" relative="1" as="geometry">
                        <mxPoint x="-110" y="-120" as="sourcePoint"/>
                        <mxPoint x="880" y="-120" as="targetPoint"/>
                    </mxGeometry>
                </mxCell>
                <mxCell id="19" value="&lt;font style=&quot;font-size: 23px&quot;&gt;Rst&lt;/font&gt;" style="text;html=1;align=center;verticalAlign=middle;resizable=0;points=[];autosize=1;strokeColor=none;" parent="1" vertex="1">
                    <mxGeometry x="-110" y="-160" width="50" height="20" as="geometry"/>
                </mxCell>
                <mxCell id="20" value="" style="endArrow=none;html=1;exitX=0.5;exitY=0;exitDx=0;exitDy=0;" parent="1" source="17" edge="1">
                    <mxGeometry width="50" height="50" relative="1" as="geometry">
                        <mxPoint x="810" y="280" as="sourcePoint"/>
                        <mxPoint x="530" y="-120" as="targetPoint"/>
                    </mxGeometry>
                </mxCell>
                <mxCell id="21" value="" style="endArrow=none;html=1;entryX=0;entryY=0.25;entryDx=0;entryDy=0;" parent="1" target="17" edge="1">
                    <mxGeometry width="50" height="50" relative="1" as="geometry">
                        <mxPoint x="380" y="90" as="sourcePoint"/>
                        <mxPoint x="860" y="230" as="targetPoint"/>
                    </mxGeometry>
                </mxCell>
                <mxCell id="22" value="&lt;div style=&quot;background-color: rgb(34 , 36 , 54) ; font-family: &amp;#34;consolas&amp;#34; , &amp;#34;courier new&amp;#34; , monospace ; font-size: 10.5px ; line-height: 14px&quot;&gt;&lt;span style=&quot;font-size: 23px&quot;&gt;0&lt;/span&gt;&lt;/div&gt;" style="text;html=1;align=center;verticalAlign=middle;resizable=0;points=[];autosize=1;strokeColor=none;fontColor=#FFFFFF;" parent="1" vertex="1">
                    <mxGeometry x="420" y="65" width="30" height="20" as="geometry"/>
                </mxCell>
                <mxCell id="23" value="" style="endArrow=none;html=1;exitX=1.005;exitY=0.626;exitDx=0;exitDy=0;exitPerimeter=0;entryX=0.001;entryY=0.493;entryDx=0;entryDy=0;entryPerimeter=0;" parent="1" source="17" target="16" edge="1">
                    <mxGeometry width="50" height="50" relative="1" as="geometry">
                        <mxPoint x="490" y="110" as="sourcePoint"/>
                        <mxPoint x="640" y="120" as="targetPoint"/>
                    </mxGeometry>
                </mxCell>
                <mxCell id="25" value="" style="endArrow=none;html=1;entryX=0.009;entryY=0.132;entryDx=0;entryDy=0;entryPerimeter=0;" parent="1" target="38" edge="1">
                    <mxGeometry width="50" height="50" relative="1" as="geometry">
                        <mxPoint x="90" y="110" as="sourcePoint"/>
                        <mxPoint x="280" y="110" as="targetPoint"/>
                    </mxGeometry>
                </mxCell>
                <mxCell id="26" value="&lt;div style=&quot;background-color: rgb(34 , 36 , 54) ; font-family: &amp;#34;consolas&amp;#34; , &amp;#34;courier new&amp;#34; , monospace ; font-size: 10.5px ; line-height: 14px&quot;&gt;&lt;span style=&quot;font-size: 23px&quot;&gt;0&lt;/span&gt;&lt;/div&gt;" style="text;html=1;align=center;verticalAlign=middle;resizable=0;points=[];autosize=1;strokeColor=none;fontColor=#FFFFFF;" parent="1" vertex="1">
                    <mxGeometry x="150" y="85" width="30" height="20" as="geometry"/>
                </mxCell>
                <mxCell id="28" value="" style="endArrow=none;html=1;entryX=0.005;entryY=0.862;entryDx=0;entryDy=0;entryPerimeter=0;exitX=1;exitY=0.5;exitDx=0;exitDy=0;" parent="1" source="38" target="17" edge="1">
                    <mxGeometry width="50" height="50" relative="1" as="geometry">
                        <mxPoint x="400" y="139" as="sourcePoint"/>
                        <mxPoint x="440" as="targetPoint"/>
                    </mxGeometry>
                </mxCell>
                <mxCell id="32" value="1" style="text;html=1;align=center;verticalAlign=middle;resizable=0;points=[];autosize=1;strokeColor=none;" parent="1" vertex="1">
                    <mxGeometry x="500" y="70" width="20" height="20" as="geometry"/>
                </mxCell>
                <mxCell id="37" value="0" style="text;html=1;align=center;verticalAlign=middle;resizable=0;points=[];autosize=1;strokeColor=none;" parent="1" vertex="1">
                    <mxGeometry x="500" y="130" width="20" height="20" as="geometry"/>
                </mxCell>
                <mxCell id="38" value="" style="whiteSpace=wrap;html=1;aspect=fixed;" parent="1" vertex="1">
                    <mxGeometry x="280" y="100" width="80" height="80" as="geometry"/>
                </mxCell>
                <mxCell id="39" value="&lt;div style=&quot;background-color: rgb(34 , 36 , 54) ; font-family: &amp;#34;consolas&amp;#34; , &amp;#34;courier new&amp;#34; , monospace ; font-size: 10.5px ; line-height: 14px&quot;&gt;&lt;span&gt;12&lt;/span&gt;&lt;/div&gt;" style="text;html=1;align=center;verticalAlign=middle;resizable=0;points=[];autosize=1;strokeColor=none;fontColor=#FFFFFF;" parent="1" vertex="1">
                    <mxGeometry x="285" y="100" width="30" height="20" as="geometry"/>
                </mxCell>
                <mxCell id="40" value="else" style="text;html=1;align=center;verticalAlign=middle;resizable=0;points=[];autosize=1;strokeColor=none;" parent="1" vertex="1">
                    <mxGeometry x="280" y="160" width="40" height="20" as="geometry"/>
                </mxCell>
                <mxCell id="41" value="" style="endArrow=none;html=1;exitX=0.5;exitY=0;exitDx=0;exitDy=0;" parent="1" source="38" edge="1">
                    <mxGeometry width="50" height="50" relative="1" as="geometry">
                        <mxPoint x="320" y="40" as="sourcePoint"/>
                        <mxPoint x="620" y="120" as="targetPoint"/>
                        <Array as="points">
                            <mxPoint x="320" y="40"/>
                            <mxPoint x="620" y="40"/>
                        </Array>
                    </mxGeometry>
                </mxCell>
                <mxCell id="42" value="" style="endArrow=none;html=1;exitX=0;exitY=0.75;exitDx=0;exitDy=0;" parent="1" source="38" edge="1">
                    <mxGeometry width="50" height="50" relative="1" as="geometry">
                        <mxPoint x="370" y="110" as="sourcePoint"/>
                        <mxPoint x="90" y="160" as="targetPoint"/>
                    </mxGeometry>
                </mxCell>
                <mxCell id="43" value="State + 1" style="text;html=1;align=center;verticalAlign=middle;resizable=0;points=[];autosize=1;strokeColor=none;" parent="1" vertex="1">
                    <mxGeometry x="100" y="140" width="60" height="20" as="geometry"/>
                </mxCell>
                <mxCell id="50" style="edgeStyle=none;html=1;exitX=1;exitY=0.5;exitDx=0;exitDy=0;endArrow=none;endFill=0;entryX=-0.005;entryY=0.6;entryDx=0;entryDy=0;entryPerimeter=0;" parent="1" source="44" target="13" edge="1">
                    <mxGeometry relative="1" as="geometry">
                        <mxPoint x="960" y="300" as="targetPoint"/>
                    </mxGeometry>
                </mxCell>
                <mxCell id="44" value="" style="whiteSpace=wrap;html=1;aspect=fixed;" parent="1" vertex="1">
                    <mxGeometry x="840" y="310" width="80" height="80" as="geometry"/>
                </mxCell>
                <mxCell id="45" value="&lt;div style=&quot;background-color: rgb(34 , 36 , 54) ; font-family: &amp;#34;consolas&amp;#34; , &amp;#34;courier new&amp;#34; , monospace ; font-size: 10.5px ; line-height: 14px&quot;&gt;&lt;span style=&quot;font-size: 23px&quot;&gt;0&lt;/span&gt;&lt;/div&gt;" style="text;html=1;align=center;verticalAlign=middle;resizable=0;points=[];autosize=1;strokeColor=none;fontColor=#FFFFFF;" parent="1" vertex="1">
                    <mxGeometry x="780" y="310" width="30" height="20" as="geometry"/>
                </mxCell>
                <mxCell id="46" value="1" style="text;html=1;align=center;verticalAlign=middle;resizable=0;points=[];autosize=1;strokeColor=none;" parent="1" vertex="1">
                    <mxGeometry x="850" y="310" width="20" height="20" as="geometry"/>
                </mxCell>
                <mxCell id="47" value="0" style="text;html=1;align=center;verticalAlign=middle;resizable=0;points=[];autosize=1;strokeColor=none;" parent="1" vertex="1">
                    <mxGeometry x="850" y="370" width="20" height="20" as="geometry"/>
                </mxCell>
                <mxCell id="48" value="" style="endArrow=none;html=1;exitX=0.5;exitY=0;exitDx=0;exitDy=0;" parent="1" source="44" edge="1">
                    <mxGeometry width="50" height="50" relative="1" as="geometry">
                        <mxPoint x="880" y="280" as="sourcePoint"/>
                        <mxPoint x="880" y="-120" as="targetPoint"/>
                    </mxGeometry>
                </mxCell>
                <mxCell id="49" value="" style="endArrow=none;html=1;entryX=0;entryY=0.25;entryDx=0;entryDy=0;" parent="1" target="44" edge="1">
                    <mxGeometry width="50" height="50" relative="1" as="geometry">
                        <mxPoint x="750" y="330" as="sourcePoint"/>
                        <mxPoint x="720" y="160" as="targetPoint"/>
                    </mxGeometry>
                </mxCell>
                <mxCell id="55" style="edgeStyle=none;html=1;entryX=-0.029;entryY=0.89;entryDx=0;entryDy=0;entryPerimeter=0;endArrow=none;endFill=0;" parent="1" target="44" edge="1">
                    <mxGeometry relative="1" as="geometry">
                        <mxPoint x="671" y="381" as="sourcePoint"/>
                    </mxGeometry>
                </mxCell>
                <mxCell id="54" value="" style="endArrow=none;html=1;exitX=0.416;exitY=0.007;exitDx=0;exitDy=0;exitPerimeter=0;" parent="1" source="56" edge="1">
                    <mxGeometry width="50" height="50" relative="1" as="geometry">
                        <mxPoint x="620" y="340" as="sourcePoint"/>
                        <mxPoint x="620" y="120" as="targetPoint"/>
                    </mxGeometry>
                </mxCell>
                <mxCell id="56" value="" style="rounded=0;whiteSpace=wrap;html=1;" parent="1" vertex="1">
                    <mxGeometry x="580" y="250" width="90" height="290" as="geometry"/>
                </mxCell>
                <mxCell id="57" value="0" style="text;html=1;align=center;verticalAlign=middle;resizable=0;points=[];autosize=1;strokeColor=none;" parent="1" vertex="1">
                    <mxGeometry x="595" y="260" width="20" height="20" as="geometry"/>
                </mxCell>
                <mxCell id="58" value="1" style="text;html=1;align=center;verticalAlign=middle;resizable=0;points=[];autosize=1;strokeColor=none;" parent="1" vertex="1">
                    <mxGeometry x="595" y="280" width="20" height="20" as="geometry"/>
                </mxCell>
                <mxCell id="59" value="2" style="text;html=1;align=center;verticalAlign=middle;resizable=0;points=[];autosize=1;strokeColor=none;" parent="1" vertex="1">
                    <mxGeometry x="595" y="300" width="20" height="20" as="geometry"/>
                </mxCell>
                <mxCell id="60" value="3" style="text;html=1;align=center;verticalAlign=middle;resizable=0;points=[];autosize=1;strokeColor=none;" parent="1" vertex="1">
                    <mxGeometry x="595" y="320" width="20" height="20" as="geometry"/>
                </mxCell>
                <mxCell id="61" value="4" style="text;html=1;align=center;verticalAlign=middle;resizable=0;points=[];autosize=1;strokeColor=none;" parent="1" vertex="1">
                    <mxGeometry x="595" y="340" width="20" height="20" as="geometry"/>
                </mxCell>
                <mxCell id="62" value="5" style="text;html=1;align=center;verticalAlign=middle;resizable=0;points=[];autosize=1;strokeColor=none;" parent="1" vertex="1">
                    <mxGeometry x="595" y="360" width="20" height="20" as="geometry"/>
                </mxCell>
                <mxCell id="63" value="6" style="text;html=1;align=center;verticalAlign=middle;resizable=0;points=[];autosize=1;strokeColor=none;" parent="1" vertex="1">
                    <mxGeometry x="595" y="380" width="20" height="20" as="geometry"/>
                </mxCell>
                <mxCell id="64" value="7" style="text;html=1;align=center;verticalAlign=middle;resizable=0;points=[];autosize=1;strokeColor=none;" parent="1" vertex="1">
                    <mxGeometry x="595" y="400" width="20" height="20" as="geometry"/>
                </mxCell>
                <mxCell id="65" value="8" style="text;html=1;align=center;verticalAlign=middle;resizable=0;points=[];autosize=1;strokeColor=none;" parent="1" vertex="1">
                    <mxGeometry x="595" y="420" width="20" height="20" as="geometry"/>
                </mxCell>
                <mxCell id="66" value="9" style="text;html=1;align=center;verticalAlign=middle;resizable=0;points=[];autosize=1;strokeColor=none;" parent="1" vertex="1">
                    <mxGeometry x="595" y="440" width="20" height="20" as="geometry"/>
                </mxCell>
                <mxCell id="67" value="10" style="text;html=1;align=center;verticalAlign=middle;resizable=0;points=[];autosize=1;strokeColor=none;" parent="1" vertex="1">
                    <mxGeometry x="590" y="460" width="30" height="20" as="geometry"/>
                </mxCell>
                <mxCell id="68" value="11" style="text;html=1;align=center;verticalAlign=middle;resizable=0;points=[];autosize=1;strokeColor=none;" parent="1" vertex="1">
                    <mxGeometry x="590" y="480" width="30" height="20" as="geometry"/>
                </mxCell>
                <mxCell id="69" value="12" style="text;html=1;align=center;verticalAlign=middle;resizable=0;points=[];autosize=1;strokeColor=none;" parent="1" vertex="1">
                    <mxGeometry x="590" y="500" width="30" height="20" as="geometry"/>
                </mxCell>
                <mxCell id="70" value="" style="endArrow=none;html=1;fillColor=#1ba1e2;strokeColor=#006EAF;exitX=1;exitY=0.5;exitDx=0;exitDy=0;" parent="1" edge="1" source="117">
                    <mxGeometry width="50" height="50" relative="1" as="geometry">
                        <mxPoint x="90" y="220" as="sourcePoint"/>
                        <mxPoint x="550" y="220" as="targetPoint"/>
                        <Array as="points">
                            <mxPoint x="60" y="100"/>
                            <mxPoint x="60" y="220"/>
                        </Array>
                    </mxGeometry>
                </mxCell>
                <mxCell id="72" value="" style="endArrow=none;html=1;fillColor=#a20025;strokeColor=#6F0000;exitX=1;exitY=0.5;exitDx=0;exitDy=0;" parent="1" edge="1" source="128">
                    <mxGeometry width="50" height="50" relative="1" as="geometry">
                        <mxPoint x="90" y="249" as="sourcePoint"/>
                        <mxPoint x="410" y="249" as="targetPoint"/>
                        <Array as="points">
                            <mxPoint x="10" y="170"/>
                            <mxPoint x="10" y="249"/>
                        </Array>
                    </mxGeometry>
                </mxCell>
                <mxCell id="74" value="" style="endArrow=none;html=1;fillColor=#008a00;strokeColor=#005700;exitX=1;exitY=0.5;exitDx=0;exitDy=0;" parent="1" edge="1" source="137">
                    <mxGeometry width="50" height="50" relative="1" as="geometry">
                        <mxPoint x="30" y="280" as="sourcePoint"/>
                        <mxPoint x="320" y="280" as="targetPoint"/>
                    </mxGeometry>
                </mxCell>
                <mxCell id="76" value="" style="endArrow=none;html=1;fillColor=#e3c800;strokeColor=#B09500;exitX=1;exitY=0.5;exitDx=0;exitDy=0;" parent="1" edge="1" source="146">
                    <mxGeometry width="50" height="50" relative="1" as="geometry">
                        <mxPoint x="-980" y="330" as="sourcePoint"/>
                        <mxPoint x="220" y="320" as="targetPoint"/>
                    </mxGeometry>
                </mxCell>
                <mxCell id="80" value="" style="endArrow=none;html=1;gradientColor=#ea6b66;fillColor=#f8cecc;strokeColor=#b85450;entryX=0;entryY=0.25;entryDx=0;entryDy=0;" parent="1" edge="1" target="96">
                    <mxGeometry width="50" height="50" relative="1" as="geometry">
                        <mxPoint x="-420" y="360" as="sourcePoint"/>
                        <mxPoint x="-340" y="388.67" as="targetPoint"/>
                    </mxGeometry>
                </mxCell>
                <mxCell id="81" value="5" style="text;html=1;align=center;verticalAlign=middle;resizable=0;points=[];autosize=1;strokeColor=#b85450;gradientColor=#ea6b66;fillColor=#f8cecc;fontSize=23;" parent="1" vertex="1">
                    <mxGeometry x="-425" y="335" width="30" height="30" as="geometry"/>
                </mxCell>
                <mxCell id="82" value="" style="endArrow=none;html=1;gradientColor=#ea6b66;fillColor=#f8cecc;strokeColor=#b85450;entryX=0;entryY=0.75;entryDx=0;entryDy=0;" parent="1" edge="1" target="108">
                    <mxGeometry width="50" height="50" relative="1" as="geometry">
                        <mxPoint x="-330" y="450" as="sourcePoint"/>
                        <mxPoint x="-340" y="419.67" as="targetPoint"/>
                    </mxGeometry>
                </mxCell>
                <mxCell id="83" value="6" style="text;html=1;align=center;verticalAlign=middle;resizable=0;points=[];autosize=1;strokeColor=#b85450;gradientColor=#ea6b66;fillColor=#f8cecc;fontSize=23;" parent="1" vertex="1">
                    <mxGeometry x="-335" y="425" width="30" height="30" as="geometry"/>
                </mxCell>
                <mxCell id="84" value="" style="endArrow=none;html=1;entryX=0.001;entryY=0.279;entryDx=0;entryDy=0;entryPerimeter=0;fillColor=#1ba1e2;strokeColor=#006EAF;" parent="1" target="56" edge="1">
                    <mxGeometry width="50" height="50" relative="1" as="geometry">
                        <mxPoint x="510" y="220" as="sourcePoint"/>
                        <mxPoint x="578" y="331" as="targetPoint"/>
                        <Array as="points">
                            <mxPoint x="510" y="331"/>
                        </Array>
                    </mxGeometry>
                </mxCell>
                <mxCell id="85" value="" style="endArrow=none;html=1;entryX=-0.005;entryY=0.062;entryDx=0;entryDy=0;entryPerimeter=0;fillColor=#1ba1e2;strokeColor=#006EAF;" parent="1" target="56" edge="1">
                    <mxGeometry width="50" height="50" relative="1" as="geometry">
                        <mxPoint x="550" y="220" as="sourcePoint"/>
                        <mxPoint x="550" y="260" as="targetPoint"/>
                        <Array as="points">
                            <mxPoint x="550" y="268"/>
                        </Array>
                    </mxGeometry>
                </mxCell>
                <mxCell id="86" value="" style="endArrow=none;html=1;entryX=0.003;entryY=0.486;entryDx=0;entryDy=0;entryPerimeter=0;fillColor=#1ba1e2;strokeColor=#006EAF;" parent="1" target="56" edge="1">
                    <mxGeometry width="50" height="50" relative="1" as="geometry">
                        <mxPoint x="460" y="220" as="sourcePoint"/>
                        <mxPoint x="570" y="390" as="targetPoint"/>
                        <Array as="points">
                            <mxPoint x="460" y="391"/>
                        </Array>
                    </mxGeometry>
                </mxCell>
                <mxCell id="87" value="" style="endArrow=none;html=1;entryX=-0.011;entryY=0.684;entryDx=0;entryDy=0;entryPerimeter=0;fillColor=#1ba1e2;strokeColor=#006EAF;" parent="1" target="56" edge="1">
                    <mxGeometry width="50" height="50" relative="1" as="geometry">
                        <mxPoint x="420" y="220" as="sourcePoint"/>
                        <mxPoint x="590.27" y="400.94000000000005" as="targetPoint"/>
                        <Array as="points">
                            <mxPoint x="420" y="448"/>
                        </Array>
                    </mxGeometry>
                </mxCell>
                <mxCell id="88" value="" style="endArrow=none;html=1;entryX=-0.011;entryY=0.129;entryDx=0;entryDy=0;entryPerimeter=0;fillColor=#a20025;strokeColor=#6F0000;" parent="1" target="56" edge="1">
                    <mxGeometry width="50" height="50" relative="1" as="geometry">
                        <mxPoint x="410" y="250" as="sourcePoint"/>
                        <mxPoint x="420" y="370" as="targetPoint"/>
                        <Array as="points">
                            <mxPoint x="410" y="287"/>
                        </Array>
                    </mxGeometry>
                </mxCell>
                <mxCell id="89" value="" style="endArrow=none;html=1;entryX=-0.017;entryY=0.425;entryDx=0;entryDy=0;entryPerimeter=0;fillColor=#a20025;strokeColor=#6F0000;" parent="1" target="56" edge="1">
                    <mxGeometry width="50" height="50" relative="1" as="geometry">
                        <mxPoint x="370" y="250" as="sourcePoint"/>
                        <mxPoint x="589.0099999999998" y="297.4100000000001" as="targetPoint"/>
                        <Array as="points">
                            <mxPoint x="370" y="373"/>
                        </Array>
                    </mxGeometry>
                </mxCell>
                <mxCell id="90" value="" style="endArrow=none;html=1;fillColor=#a20025;strokeColor=#6F0000;" parent="1" edge="1">
                    <mxGeometry width="50" height="50" relative="1" as="geometry">
                        <mxPoint x="340" y="250" as="sourcePoint"/>
                        <mxPoint x="580" y="470" as="targetPoint"/>
                        <Array as="points">
                            <mxPoint x="340" y="470"/>
                        </Array>
                    </mxGeometry>
                </mxCell>
                <mxCell id="91" value="" style="endArrow=none;html=1;entryX=-0.017;entryY=0.207;entryDx=0;entryDy=0;entryPerimeter=0;fillColor=#008a00;strokeColor=#005700;" parent="1" target="56" edge="1">
                    <mxGeometry width="50" height="50" relative="1" as="geometry">
                        <mxPoint x="320" y="280" as="sourcePoint"/>
                        <mxPoint x="609.0099999999998" y="317.4100000000001" as="targetPoint"/>
                        <Array as="points">
                            <mxPoint x="320" y="310"/>
                        </Array>
                    </mxGeometry>
                </mxCell>
                <mxCell id="92" value="" style="endArrow=none;html=1;entryX=-0.011;entryY=0.559;entryDx=0;entryDy=0;entryPerimeter=0;fillColor=#008a00;strokeColor=#005700;" parent="1" target="56" edge="1">
                    <mxGeometry width="50" height="50" relative="1" as="geometry">
                        <mxPoint x="280" y="280" as="sourcePoint"/>
                        <mxPoint x="588.4700000000003" y="320.0300000000002" as="targetPoint"/>
                        <Array as="points">
                            <mxPoint x="280" y="412"/>
                        </Array>
                    </mxGeometry>
                </mxCell>
                <mxCell id="93" value="" style="endArrow=none;html=1;entryX=-0.011;entryY=0.891;entryDx=0;entryDy=0;entryPerimeter=0;fillColor=#008a00;strokeColor=#005700;" parent="1" target="56" edge="1">
                    <mxGeometry width="50" height="50" relative="1" as="geometry">
                        <mxPoint x="240" y="280" as="sourcePoint"/>
                        <mxPoint x="589.0099999999998" y="422.1099999999999" as="targetPoint"/>
                        <Array as="points">
                            <mxPoint x="240" y="508"/>
                        </Array>
                    </mxGeometry>
                </mxCell>
                <mxCell id="94" value="" style="endArrow=none;html=1;fillColor=#e3c800;strokeColor=#B09500;entryX=-0.019;entryY=0.351;entryDx=0;entryDy=0;entryPerimeter=0;" parent="1" target="56" edge="1">
                    <mxGeometry width="50" height="50" relative="1" as="geometry">
                        <mxPoint x="220" y="320" as="sourcePoint"/>
                        <mxPoint x="230" y="324" as="targetPoint"/>
                        <Array as="points">
                            <mxPoint x="220" y="352"/>
                        </Array>
                    </mxGeometry>
                </mxCell>
                <mxCell id="95" value="" style="endArrow=none;html=1;fillColor=#e3c800;strokeColor=#B09500;entryX=0.001;entryY=0.84;entryDx=0;entryDy=0;entryPerimeter=0;" parent="1" target="56" edge="1">
                    <mxGeometry width="50" height="50" relative="1" as="geometry">
                        <mxPoint x="180" y="320" as="sourcePoint"/>
                        <mxPoint x="560" y="460" as="targetPoint"/>
                        <Array as="points">
                            <mxPoint x="180" y="490"/>
                        </Array>
                    </mxGeometry>
                </mxCell>
                <mxCell id="111" style="edgeStyle=none;html=1;exitX=1;exitY=0.5;exitDx=0;exitDy=0;entryX=0;entryY=0.25;entryDx=0;entryDy=0;endArrow=none;endFill=0;" edge="1" parent="1" source="96" target="108">
                    <mxGeometry relative="1" as="geometry"/>
                </mxCell>
                <mxCell id="114" style="edgeStyle=none;html=1;exitX=0;exitY=0.75;exitDx=0;exitDy=0;endArrow=none;endFill=0;" edge="1" parent="1" source="96">
                    <mxGeometry relative="1" as="geometry">
                        <mxPoint x="-420" y="400" as="targetPoint"/>
                    </mxGeometry>
                </mxCell>
                <mxCell id="96" value="" style="whiteSpace=wrap;html=1;aspect=fixed;" parent="1" vertex="1">
                    <mxGeometry x="-260" y="340" width="80" height="80" as="geometry"/>
                </mxCell>
                <mxCell id="97" value="1" style="text;html=1;align=center;verticalAlign=middle;resizable=0;points=[];autosize=1;strokeColor=none;" parent="1" vertex="1">
                    <mxGeometry x="-250" y="340" width="20" height="20" as="geometry"/>
                </mxCell>
                <mxCell id="98" value="0" style="text;html=1;align=center;verticalAlign=middle;resizable=0;points=[];autosize=1;strokeColor=none;" parent="1" vertex="1">
                    <mxGeometry x="-250" y="400" width="20" height="20" as="geometry"/>
                </mxCell>
                <mxCell id="104" style="edgeStyle=none;html=1;exitX=1;exitY=0.5;exitDx=0;exitDy=0;entryX=-0.018;entryY=0.467;entryDx=0;entryDy=0;entryPerimeter=0;endArrow=none;endFill=0;" parent="1" source="99" target="14" edge="1">
                    <mxGeometry relative="1" as="geometry"/>
                </mxCell>
                <mxCell id="105" style="edgeStyle=none;html=1;exitX=0;exitY=0.75;exitDx=0;exitDy=0;endArrow=none;endFill=0;entryX=1.011;entryY=0.422;entryDx=0;entryDy=0;entryPerimeter=0;" parent="1" source="99" target="172" edge="1">
                    <mxGeometry relative="1" as="geometry">
                        <mxPoint x="695" y="-549" as="targetPoint"/>
                    </mxGeometry>
                </mxCell>
                <mxCell id="99" value="" style="whiteSpace=wrap;html=1;aspect=fixed;" parent="1" vertex="1">
                    <mxGeometry x="785" y="-610" width="80" height="80" as="geometry"/>
                </mxCell>
                <mxCell id="100" value="&lt;div style=&quot;background-color: rgb(34 , 36 , 54) ; font-family: &amp;#34;consolas&amp;#34; , &amp;#34;courier new&amp;#34; , monospace ; font-size: 10.5px ; line-height: 14px&quot;&gt;&lt;span style=&quot;font-size: 23px&quot;&gt;0&lt;/span&gt;&lt;/div&gt;" style="text;html=1;align=center;verticalAlign=middle;resizable=0;points=[];autosize=1;strokeColor=none;fontColor=#FFFFFF;" parent="1" vertex="1">
                    <mxGeometry x="725" y="-610" width="30" height="20" as="geometry"/>
                </mxCell>
                <mxCell id="101" value="1" style="text;html=1;align=center;verticalAlign=middle;resizable=0;points=[];autosize=1;strokeColor=none;" parent="1" vertex="1">
                    <mxGeometry x="795" y="-610" width="20" height="20" as="geometry"/>
                </mxCell>
                <mxCell id="102" value="0" style="text;html=1;align=center;verticalAlign=middle;resizable=0;points=[];autosize=1;strokeColor=none;" parent="1" vertex="1">
                    <mxGeometry x="795" y="-550" width="20" height="20" as="geometry"/>
                </mxCell>
                <mxCell id="103" value="" style="endArrow=none;html=1;entryX=0;entryY=0.25;entryDx=0;entryDy=0;" parent="1" target="99" edge="1">
                    <mxGeometry width="50" height="50" relative="1" as="geometry">
                        <mxPoint x="695" y="-590" as="sourcePoint"/>
                        <mxPoint x="665" y="-760" as="targetPoint"/>
                    </mxGeometry>
                </mxCell>
                <mxCell id="106" value="&lt;font style=&quot;font-size: 23px&quot;&gt;ST[6:0] &amp;lt; 50&lt;/font&gt;" style="text;html=1;align=center;verticalAlign=middle;resizable=0;points=[];autosize=1;strokeColor=none;" parent="1" vertex="1">
                    <mxGeometry x="-280" y="600" width="140" height="20" as="geometry"/>
                </mxCell>
                <mxCell id="107" value="" style="endArrow=none;html=1;fontColor=#FFFFFF;exitX=0.436;exitY=-0.043;exitDx=0;exitDy=0;exitPerimeter=0;entryX=0.5;entryY=1;entryDx=0;entryDy=0;" parent="1" source="106" target="96" edge="1">
                    <mxGeometry width="50" height="50" relative="1" as="geometry">
                        <mxPoint x="-210" y="270" as="sourcePoint"/>
                        <mxPoint x="-210" y="520" as="targetPoint"/>
                    </mxGeometry>
                </mxCell>
                <mxCell id="113" style="edgeStyle=none;html=1;exitX=0.5;exitY=1;exitDx=0;exitDy=0;entryX=0.571;entryY=0.017;entryDx=0;entryDy=0;entryPerimeter=0;endArrow=none;endFill=0;" edge="1" parent="1" source="108" target="112">
                    <mxGeometry relative="1" as="geometry"/>
                </mxCell>
                <mxCell id="116" style="edgeStyle=none;html=1;exitX=1;exitY=0.5;exitDx=0;exitDy=0;entryX=0;entryY=0.624;entryDx=0;entryDy=0;entryPerimeter=0;endArrow=none;endFill=0;gradientColor=#ea6b66;fillColor=#f8cecc;strokeColor=#b85450;" edge="1" parent="1" source="108" target="56">
                    <mxGeometry relative="1" as="geometry"/>
                </mxCell>
                <mxCell id="108" value="" style="whiteSpace=wrap;html=1;aspect=fixed;" vertex="1" parent="1">
                    <mxGeometry x="-100" y="390" width="80" height="80" as="geometry"/>
                </mxCell>
                <mxCell id="109" value="0" style="text;html=1;align=center;verticalAlign=middle;resizable=0;points=[];autosize=1;strokeColor=none;" vertex="1" parent="1">
                    <mxGeometry x="-90" y="390" width="20" height="20" as="geometry"/>
                </mxCell>
                <mxCell id="110" value="1" style="text;html=1;align=center;verticalAlign=middle;resizable=0;points=[];autosize=1;strokeColor=none;" vertex="1" parent="1">
                    <mxGeometry x="-90" y="450" width="20" height="20" as="geometry"/>
                </mxCell>
                <mxCell id="112" value="&lt;font style=&quot;font-size: 23px&quot;&gt;ST[6:0] &amp;gt; 70&lt;/font&gt;" style="text;html=1;align=center;verticalAlign=middle;resizable=0;points=[];autosize=1;strokeColor=none;" vertex="1" parent="1">
                    <mxGeometry x="-140" y="560" width="140" height="20" as="geometry"/>
                </mxCell>
                <mxCell id="115" value="&lt;font style=&quot;font-size: 23px&quot;&gt;0&lt;/font&gt;" style="text;html=1;align=center;verticalAlign=middle;resizable=0;points=[];autosize=1;strokeColor=none;" vertex="1" parent="1">
                    <mxGeometry x="-410" y="380" width="30" height="20" as="geometry"/>
                </mxCell>
                <mxCell id="126" style="edgeStyle=none;html=1;exitX=0;exitY=0.25;exitDx=0;exitDy=0;endArrow=none;endFill=0;" edge="1" parent="1" source="117">
                    <mxGeometry relative="1" as="geometry">
                        <mxPoint x="-340" y="80" as="targetPoint"/>
                    </mxGeometry>
                </mxCell>
                <mxCell id="117" value="" style="whiteSpace=wrap;html=1;aspect=fixed;" vertex="1" parent="1">
                    <mxGeometry x="-120" y="60" width="80" height="80" as="geometry"/>
                </mxCell>
                <mxCell id="118" value="1" style="text;html=1;align=center;verticalAlign=middle;resizable=0;points=[];autosize=1;strokeColor=none;" vertex="1" parent="1">
                    <mxGeometry x="-110" y="60" width="20" height="20" as="geometry"/>
                </mxCell>
                <mxCell id="119" value="0" style="text;html=1;align=center;verticalAlign=middle;resizable=0;points=[];autosize=1;strokeColor=none;" vertex="1" parent="1">
                    <mxGeometry x="-110" y="120" width="20" height="20" as="geometry"/>
                </mxCell>
                <mxCell id="120" value="&lt;font style=&quot;font-size: 23px&quot;&gt;SFD&lt;/font&gt;" style="text;html=1;align=center;verticalAlign=middle;resizable=0;points=[];autosize=1;strokeColor=none;" vertex="1" parent="1">
                    <mxGeometry x="-120" y="-50" width="60" height="20" as="geometry"/>
                </mxCell>
                <mxCell id="121" value="" style="endArrow=none;html=1;fontColor=#FFFFFF;entryX=0.5;entryY=0;entryDx=0;entryDy=0;exitX=0.689;exitY=1.05;exitDx=0;exitDy=0;exitPerimeter=0;" edge="1" parent="1" source="120" target="117">
                    <mxGeometry width="50" height="50" relative="1" as="geometry">
                        <mxPoint x="-230" y="-24" as="sourcePoint"/>
                        <mxPoint x="-236" y="50" as="targetPoint"/>
                    </mxGeometry>
                </mxCell>
                <mxCell id="123" style="edgeStyle=none;html=1;exitX=0;exitY=0.75;exitDx=0;exitDy=0;endArrow=none;endFill=0;" edge="1" parent="1" source="117">
                    <mxGeometry relative="1" as="geometry">
                        <mxPoint x="-340" y="120" as="targetPoint"/>
                        <mxPoint x="-280" y="138.32999999999998" as="sourcePoint"/>
                    </mxGeometry>
                </mxCell>
                <mxCell id="124" value="&lt;font style=&quot;font-size: 23px&quot;&gt;0&lt;/font&gt;" style="text;html=1;align=center;verticalAlign=middle;resizable=0;points=[];autosize=1;strokeColor=none;" vertex="1" parent="1">
                    <mxGeometry x="-335" y="104.99999999999999" width="30" height="20" as="geometry"/>
                </mxCell>
                <mxCell id="125" value="&lt;font style=&quot;font-size: 23px&quot;&gt;1&lt;/font&gt;" style="text;html=1;align=center;verticalAlign=middle;resizable=0;points=[];autosize=1;strokeColor=none;fillColor=#1ba1e2;fontColor=#ffffff;" vertex="1" parent="1">
                    <mxGeometry x="-335" y="60" width="30" height="20" as="geometry"/>
                </mxCell>
                <mxCell id="127" style="edgeStyle=none;html=1;exitX=0;exitY=0.25;exitDx=0;exitDy=0;endArrow=none;endFill=0;" edge="1" parent="1" source="128">
                    <mxGeometry relative="1" as="geometry">
                        <mxPoint x="-685" y="145" as="targetPoint"/>
                    </mxGeometry>
                </mxCell>
                <mxCell id="128" value="" style="whiteSpace=wrap;html=1;aspect=fixed;" vertex="1" parent="1">
                    <mxGeometry x="-465" y="125" width="80" height="80" as="geometry"/>
                </mxCell>
                <mxCell id="129" value="1" style="text;html=1;align=center;verticalAlign=middle;resizable=0;points=[];autosize=1;strokeColor=none;" vertex="1" parent="1">
                    <mxGeometry x="-455" y="125" width="20" height="20" as="geometry"/>
                </mxCell>
                <mxCell id="130" value="0" style="text;html=1;align=center;verticalAlign=middle;resizable=0;points=[];autosize=1;strokeColor=none;" vertex="1" parent="1">
                    <mxGeometry x="-455" y="185" width="20" height="20" as="geometry"/>
                </mxCell>
                <mxCell id="131" value="&lt;font style=&quot;font-size: 23px&quot;&gt;SRD&lt;/font&gt;" style="text;html=1;align=center;verticalAlign=middle;resizable=0;points=[];autosize=1;strokeColor=none;" vertex="1" parent="1">
                    <mxGeometry x="-465" y="15" width="60" height="20" as="geometry"/>
                </mxCell>
                <mxCell id="132" value="" style="endArrow=none;html=1;fontColor=#FFFFFF;entryX=0.5;entryY=0;entryDx=0;entryDy=0;exitX=0.689;exitY=1.05;exitDx=0;exitDy=0;exitPerimeter=0;" edge="1" parent="1" source="131" target="128">
                    <mxGeometry width="50" height="50" relative="1" as="geometry">
                        <mxPoint x="-575" y="41" as="sourcePoint"/>
                        <mxPoint x="-581" y="115" as="targetPoint"/>
                    </mxGeometry>
                </mxCell>
                <mxCell id="133" style="edgeStyle=none;html=1;exitX=0;exitY=0.75;exitDx=0;exitDy=0;endArrow=none;endFill=0;" edge="1" parent="1" source="128">
                    <mxGeometry relative="1" as="geometry">
                        <mxPoint x="-685" y="185" as="targetPoint"/>
                        <mxPoint x="-625" y="203.32999999999998" as="sourcePoint"/>
                    </mxGeometry>
                </mxCell>
                <mxCell id="134" value="&lt;font style=&quot;font-size: 23px&quot;&gt;0&lt;/font&gt;" style="text;html=1;align=center;verticalAlign=middle;resizable=0;points=[];autosize=1;strokeColor=none;" vertex="1" parent="1">
                    <mxGeometry x="-680" y="170" width="30" height="20" as="geometry"/>
                </mxCell>
                <mxCell id="135" value="&lt;font style=&quot;font-size: 23px&quot;&gt;2&lt;/font&gt;" style="text;html=1;align=center;verticalAlign=middle;resizable=0;points=[];autosize=1;strokeColor=#6F0000;fillColor=#a20025;fontColor=#ffffff;" vertex="1" parent="1">
                    <mxGeometry x="-680" y="125" width="30" height="20" as="geometry"/>
                </mxCell>
                <mxCell id="136" style="edgeStyle=none;html=1;exitX=0;exitY=0.25;exitDx=0;exitDy=0;endArrow=none;endFill=0;" edge="1" parent="1" source="137">
                    <mxGeometry relative="1" as="geometry">
                        <mxPoint x="-995" y="230" as="targetPoint"/>
                    </mxGeometry>
                </mxCell>
                <mxCell id="137" value="" style="whiteSpace=wrap;html=1;aspect=fixed;" vertex="1" parent="1">
                    <mxGeometry x="-775" y="230" width="80" height="80" as="geometry"/>
                </mxCell>
                <mxCell id="138" value="1" style="text;html=1;align=center;verticalAlign=middle;resizable=0;points=[];autosize=1;strokeColor=none;" vertex="1" parent="1">
                    <mxGeometry x="-765" y="230" width="20" height="20" as="geometry"/>
                </mxCell>
                <mxCell id="139" value="0" style="text;html=1;align=center;verticalAlign=middle;resizable=0;points=[];autosize=1;strokeColor=none;" vertex="1" parent="1">
                    <mxGeometry x="-765" y="290" width="20" height="20" as="geometry"/>
                </mxCell>
                <mxCell id="140" value="&lt;font style=&quot;font-size: 23px&quot;&gt;SFA&lt;/font&gt;" style="text;html=1;align=center;verticalAlign=middle;resizable=0;points=[];autosize=1;strokeColor=none;" vertex="1" parent="1">
                    <mxGeometry x="-775" y="100" width="60" height="20" as="geometry"/>
                </mxCell>
                <mxCell id="141" value="" style="endArrow=none;html=1;fontColor=#FFFFFF;entryX=0.5;entryY=0;entryDx=0;entryDy=0;exitX=0.689;exitY=1.05;exitDx=0;exitDy=0;exitPerimeter=0;" edge="1" parent="1" source="140" target="137">
                    <mxGeometry width="50" height="50" relative="1" as="geometry">
                        <mxPoint x="-885" y="126" as="sourcePoint"/>
                        <mxPoint x="-891" y="200" as="targetPoint"/>
                    </mxGeometry>
                </mxCell>
                <mxCell id="142" style="edgeStyle=none;html=1;exitX=0;exitY=0.75;exitDx=0;exitDy=0;endArrow=none;endFill=0;" edge="1" parent="1" source="137">
                    <mxGeometry relative="1" as="geometry">
                        <mxPoint x="-995" y="270" as="targetPoint"/>
                        <mxPoint x="-935" y="288.33" as="sourcePoint"/>
                    </mxGeometry>
                </mxCell>
                <mxCell id="143" value="&lt;font style=&quot;font-size: 23px&quot;&gt;0&lt;/font&gt;" style="text;html=1;align=center;verticalAlign=middle;resizable=0;points=[];autosize=1;strokeColor=none;" vertex="1" parent="1">
                    <mxGeometry x="-990" y="255" width="30" height="20" as="geometry"/>
                </mxCell>
                <mxCell id="144" value="&lt;font style=&quot;font-size: 23px&quot;&gt;3&lt;/font&gt;" style="text;html=1;align=center;verticalAlign=middle;resizable=0;points=[];autosize=1;strokeColor=#005700;fillColor=#008a00;fontColor=#ffffff;" vertex="1" parent="1">
                    <mxGeometry x="-990" y="210" width="30" height="20" as="geometry"/>
                </mxCell>
                <mxCell id="145" style="edgeStyle=none;html=1;exitX=0;exitY=0.25;exitDx=0;exitDy=0;endArrow=none;endFill=0;" edge="1" parent="1" source="146">
                    <mxGeometry relative="1" as="geometry">
                        <mxPoint x="-1310" y="310" as="targetPoint"/>
                    </mxGeometry>
                </mxCell>
                <mxCell id="146" value="" style="whiteSpace=wrap;html=1;aspect=fixed;" vertex="1" parent="1">
                    <mxGeometry x="-1090" y="290" width="80" height="80" as="geometry"/>
                </mxCell>
                <mxCell id="147" value="1" style="text;html=1;align=center;verticalAlign=middle;resizable=0;points=[];autosize=1;strokeColor=none;" vertex="1" parent="1">
                    <mxGeometry x="-1080" y="290" width="20" height="20" as="geometry"/>
                </mxCell>
                <mxCell id="148" value="0" style="text;html=1;align=center;verticalAlign=middle;resizable=0;points=[];autosize=1;strokeColor=none;" vertex="1" parent="1">
                    <mxGeometry x="-1080" y="350" width="20" height="20" as="geometry"/>
                </mxCell>
                <mxCell id="149" value="&lt;font style=&quot;font-size: 23px&quot;&gt;SW&lt;/font&gt;" style="text;html=1;align=center;verticalAlign=middle;resizable=0;points=[];autosize=1;strokeColor=none;" vertex="1" parent="1">
                    <mxGeometry x="-1085" y="185" width="50" height="20" as="geometry"/>
                </mxCell>
                <mxCell id="150" value="" style="endArrow=none;html=1;fontColor=#FFFFFF;entryX=0.5;entryY=0;entryDx=0;entryDy=0;exitX=0.689;exitY=1.05;exitDx=0;exitDy=0;exitPerimeter=0;" edge="1" parent="1" source="149" target="146">
                    <mxGeometry width="50" height="50" relative="1" as="geometry">
                        <mxPoint x="-1190" y="211" as="sourcePoint"/>
                        <mxPoint x="-1196" y="285" as="targetPoint"/>
                    </mxGeometry>
                </mxCell>
                <mxCell id="151" style="edgeStyle=none;html=1;exitX=0;exitY=0.75;exitDx=0;exitDy=0;endArrow=none;endFill=0;" edge="1" parent="1" source="146">
                    <mxGeometry relative="1" as="geometry">
                        <mxPoint x="-1310" y="350" as="targetPoint"/>
                        <mxPoint x="-1240" y="373.33" as="sourcePoint"/>
                    </mxGeometry>
                </mxCell>
                <mxCell id="152" value="&lt;font style=&quot;font-size: 23px&quot;&gt;0&lt;/font&gt;" style="text;html=1;align=center;verticalAlign=middle;resizable=0;points=[];autosize=1;strokeColor=none;" vertex="1" parent="1">
                    <mxGeometry x="-1240" y="330" width="30" height="20" as="geometry"/>
                </mxCell>
                <mxCell id="153" value="&lt;font style=&quot;font-size: 23px&quot;&gt;4&lt;/font&gt;" style="text;html=1;align=center;verticalAlign=middle;resizable=0;points=[];autosize=1;strokeColor=#B09500;fillColor=#e3c800;fontColor=#000000;" vertex="1" parent="1">
                    <mxGeometry x="-1240" y="280" width="30" height="20" as="geometry"/>
                </mxCell>
                <mxCell id="172" value="" style="rounded=0;whiteSpace=wrap;html=1;" vertex="1" parent="1">
                    <mxGeometry x="500" y="-670" width="90" height="290" as="geometry"/>
                </mxCell>
                <mxCell id="173" value="0" style="text;html=1;align=center;verticalAlign=middle;resizable=0;points=[];autosize=1;strokeColor=none;" vertex="1" parent="1">
                    <mxGeometry x="515" y="-660" width="20" height="20" as="geometry"/>
                </mxCell>
                <mxCell id="174" value="1" style="text;html=1;align=center;verticalAlign=middle;resizable=0;points=[];autosize=1;strokeColor=none;" vertex="1" parent="1">
                    <mxGeometry x="515" y="-640" width="20" height="20" as="geometry"/>
                </mxCell>
                <mxCell id="175" value="2" style="text;html=1;align=center;verticalAlign=middle;resizable=0;points=[];autosize=1;strokeColor=none;" vertex="1" parent="1">
                    <mxGeometry x="515" y="-620" width="20" height="20" as="geometry"/>
                </mxCell>
                <mxCell id="176" value="3" style="text;html=1;align=center;verticalAlign=middle;resizable=0;points=[];autosize=1;strokeColor=none;" vertex="1" parent="1">
                    <mxGeometry x="515" y="-600" width="20" height="20" as="geometry"/>
                </mxCell>
                <mxCell id="177" value="4" style="text;html=1;align=center;verticalAlign=middle;resizable=0;points=[];autosize=1;strokeColor=none;" vertex="1" parent="1">
                    <mxGeometry x="515" y="-580" width="20" height="20" as="geometry"/>
                </mxCell>
                <mxCell id="178" value="5" style="text;html=1;align=center;verticalAlign=middle;resizable=0;points=[];autosize=1;strokeColor=none;" vertex="1" parent="1">
                    <mxGeometry x="515" y="-560" width="20" height="20" as="geometry"/>
                </mxCell>
                <mxCell id="179" value="6" style="text;html=1;align=center;verticalAlign=middle;resizable=0;points=[];autosize=1;strokeColor=none;" vertex="1" parent="1">
                    <mxGeometry x="515" y="-540" width="20" height="20" as="geometry"/>
                </mxCell>
                <mxCell id="180" value="7" style="text;html=1;align=center;verticalAlign=middle;resizable=0;points=[];autosize=1;strokeColor=none;" vertex="1" parent="1">
                    <mxGeometry x="515" y="-520" width="20" height="20" as="geometry"/>
                </mxCell>
                <mxCell id="181" value="8" style="text;html=1;align=center;verticalAlign=middle;resizable=0;points=[];autosize=1;strokeColor=none;" vertex="1" parent="1">
                    <mxGeometry x="515" y="-500" width="20" height="20" as="geometry"/>
                </mxCell>
                <mxCell id="182" value="9" style="text;html=1;align=center;verticalAlign=middle;resizable=0;points=[];autosize=1;strokeColor=none;" vertex="1" parent="1">
                    <mxGeometry x="515" y="-480" width="20" height="20" as="geometry"/>
                </mxCell>
                <mxCell id="183" value="10" style="text;html=1;align=center;verticalAlign=middle;resizable=0;points=[];autosize=1;strokeColor=none;" vertex="1" parent="1">
                    <mxGeometry x="510" y="-460" width="30" height="20" as="geometry"/>
                </mxCell>
                <mxCell id="184" value="11" style="text;html=1;align=center;verticalAlign=middle;resizable=0;points=[];autosize=1;strokeColor=none;" vertex="1" parent="1">
                    <mxGeometry x="510" y="-440" width="30" height="20" as="geometry"/>
                </mxCell>
                <mxCell id="185" value="12" style="text;html=1;align=center;verticalAlign=middle;resizable=0;points=[];autosize=1;strokeColor=none;" vertex="1" parent="1">
                    <mxGeometry x="510" y="-420" width="30" height="20" as="geometry"/>
                </mxCell>
                <mxCell id="186" value="" style="endArrow=none;html=1;fillColor=#1ba1e2;strokeColor=#006EAF;exitX=1;exitY=0.5;exitDx=0;exitDy=0;" edge="1" parent="1" source="222">
                    <mxGeometry width="50" height="50" relative="1" as="geometry">
                        <mxPoint x="10" y="-700" as="sourcePoint"/>
                        <mxPoint x="470" y="-700" as="targetPoint"/>
                        <Array as="points">
                            <mxPoint x="-20" y="-820"/>
                            <mxPoint x="-20" y="-700"/>
                        </Array>
                    </mxGeometry>
                </mxCell>
                <mxCell id="187" value="" style="endArrow=none;html=1;fillColor=#a20025;strokeColor=#6F0000;exitX=1;exitY=0.5;exitDx=0;exitDy=0;" edge="1" parent="1" source="231">
                    <mxGeometry width="50" height="50" relative="1" as="geometry">
                        <mxPoint x="10" y="-671" as="sourcePoint"/>
                        <mxPoint x="330" y="-671" as="targetPoint"/>
                        <Array as="points">
                            <mxPoint x="-70" y="-750"/>
                            <mxPoint x="-70" y="-671"/>
                        </Array>
                    </mxGeometry>
                </mxCell>
                <mxCell id="188" value="" style="endArrow=none;html=1;fillColor=#008a00;strokeColor=#005700;exitX=1;exitY=0.5;exitDx=0;exitDy=0;" edge="1" parent="1" source="240">
                    <mxGeometry width="50" height="50" relative="1" as="geometry">
                        <mxPoint x="-50" y="-640" as="sourcePoint"/>
                        <mxPoint x="240" y="-640" as="targetPoint"/>
                    </mxGeometry>
                </mxCell>
                <mxCell id="189" value="" style="endArrow=none;html=1;fillColor=#e3c800;strokeColor=#B09500;exitX=1;exitY=0.5;exitDx=0;exitDy=0;" edge="1" parent="1" source="249">
                    <mxGeometry width="50" height="50" relative="1" as="geometry">
                        <mxPoint x="-1060" y="-590" as="sourcePoint"/>
                        <mxPoint x="140" y="-600" as="targetPoint"/>
                    </mxGeometry>
                </mxCell>
                <mxCell id="191" value="" style="endArrow=none;html=1;gradientColor=#ea6b66;fillColor=#f8cecc;strokeColor=#b85450;entryX=0;entryY=0.25;entryDx=0;entryDy=0;" edge="1" parent="1" target="209">
                    <mxGeometry width="50" height="50" relative="1" as="geometry">
                        <mxPoint x="-500" y="-560" as="sourcePoint"/>
                        <mxPoint x="-420" y="-531.3299999999999" as="targetPoint"/>
                    </mxGeometry>
                </mxCell>
                <mxCell id="192" value="&lt;span style=&quot;color: rgb(255 , 255 , 255)&quot;&gt;000010&lt;/span&gt;" style="text;html=1;align=center;verticalAlign=middle;resizable=0;points=[];autosize=1;strokeColor=#b85450;gradientColor=#ea6b66;fillColor=#f8cecc;fontSize=23;" vertex="1" parent="1">
                    <mxGeometry x="-535" y="-585" width="90" height="30" as="geometry"/>
                </mxCell>
                <mxCell id="193" value="" style="endArrow=none;html=1;gradientColor=#ea6b66;fillColor=#f8cecc;strokeColor=#b85450;entryX=0;entryY=0.75;entryDx=0;entryDy=0;" edge="1" parent="1" target="216">
                    <mxGeometry width="50" height="50" relative="1" as="geometry">
                        <mxPoint x="-410" y="-470" as="sourcePoint"/>
                        <mxPoint x="-420" y="-500.33" as="targetPoint"/>
                    </mxGeometry>
                </mxCell>
                <mxCell id="194" value="&lt;span style=&quot;color: rgb(255 , 255 , 255)&quot;&gt;000001&lt;/span&gt;" style="text;html=1;align=center;verticalAlign=middle;resizable=0;points=[];autosize=1;strokeColor=#b85450;gradientColor=#ea6b66;fillColor=#f8cecc;fontSize=23;" vertex="1" parent="1">
                    <mxGeometry x="-445" y="-495" width="90" height="30" as="geometry"/>
                </mxCell>
                <mxCell id="195" value="" style="endArrow=none;html=1;entryX=0.001;entryY=0.279;entryDx=0;entryDy=0;entryPerimeter=0;fillColor=#1ba1e2;strokeColor=#006EAF;" edge="1" parent="1" target="172">
                    <mxGeometry width="50" height="50" relative="1" as="geometry">
                        <mxPoint x="430" y="-700" as="sourcePoint"/>
                        <mxPoint x="498" y="-589" as="targetPoint"/>
                        <Array as="points">
                            <mxPoint x="430" y="-589"/>
                        </Array>
                    </mxGeometry>
                </mxCell>
                <mxCell id="196" value="" style="endArrow=none;html=1;entryX=-0.005;entryY=0.062;entryDx=0;entryDy=0;entryPerimeter=0;fillColor=#1ba1e2;strokeColor=#006EAF;" edge="1" parent="1" target="172">
                    <mxGeometry width="50" height="50" relative="1" as="geometry">
                        <mxPoint x="470" y="-700" as="sourcePoint"/>
                        <mxPoint x="470" y="-660" as="targetPoint"/>
                        <Array as="points">
                            <mxPoint x="470" y="-652"/>
                        </Array>
                    </mxGeometry>
                </mxCell>
                <mxCell id="197" value="" style="endArrow=none;html=1;entryX=0.003;entryY=0.486;entryDx=0;entryDy=0;entryPerimeter=0;fillColor=#1ba1e2;strokeColor=#006EAF;" edge="1" parent="1" target="172">
                    <mxGeometry width="50" height="50" relative="1" as="geometry">
                        <mxPoint x="380" y="-700" as="sourcePoint"/>
                        <mxPoint x="490" y="-530" as="targetPoint"/>
                        <Array as="points">
                            <mxPoint x="380" y="-529"/>
                        </Array>
                    </mxGeometry>
                </mxCell>
                <mxCell id="198" value="" style="endArrow=none;html=1;entryX=-0.011;entryY=0.684;entryDx=0;entryDy=0;entryPerimeter=0;fillColor=#1ba1e2;strokeColor=#006EAF;" edge="1" parent="1" target="172">
                    <mxGeometry width="50" height="50" relative="1" as="geometry">
                        <mxPoint x="340" y="-700" as="sourcePoint"/>
                        <mxPoint x="510.27" y="-519.06" as="targetPoint"/>
                        <Array as="points">
                            <mxPoint x="340" y="-472"/>
                        </Array>
                    </mxGeometry>
                </mxCell>
                <mxCell id="199" value="" style="endArrow=none;html=1;entryX=-0.011;entryY=0.129;entryDx=0;entryDy=0;entryPerimeter=0;fillColor=#a20025;strokeColor=#6F0000;" edge="1" parent="1" target="172">
                    <mxGeometry width="50" height="50" relative="1" as="geometry">
                        <mxPoint x="330" y="-670" as="sourcePoint"/>
                        <mxPoint x="340" y="-550" as="targetPoint"/>
                        <Array as="points">
                            <mxPoint x="330" y="-633"/>
                        </Array>
                    </mxGeometry>
                </mxCell>
                <mxCell id="200" value="" style="endArrow=none;html=1;entryX=-0.017;entryY=0.425;entryDx=0;entryDy=0;entryPerimeter=0;fillColor=#a20025;strokeColor=#6F0000;" edge="1" parent="1" target="172">
                    <mxGeometry width="50" height="50" relative="1" as="geometry">
                        <mxPoint x="290" y="-670" as="sourcePoint"/>
                        <mxPoint x="509.00999999999976" y="-622.5899999999999" as="targetPoint"/>
                        <Array as="points">
                            <mxPoint x="290" y="-547"/>
                        </Array>
                    </mxGeometry>
                </mxCell>
                <mxCell id="201" value="" style="endArrow=none;html=1;fillColor=#a20025;strokeColor=#6F0000;" edge="1" parent="1">
                    <mxGeometry width="50" height="50" relative="1" as="geometry">
                        <mxPoint x="260" y="-670" as="sourcePoint"/>
                        <mxPoint x="500" y="-450" as="targetPoint"/>
                        <Array as="points">
                            <mxPoint x="260" y="-450"/>
                        </Array>
                    </mxGeometry>
                </mxCell>
                <mxCell id="202" value="" style="endArrow=none;html=1;entryX=-0.017;entryY=0.207;entryDx=0;entryDy=0;entryPerimeter=0;fillColor=#008a00;strokeColor=#005700;" edge="1" parent="1" target="172">
                    <mxGeometry width="50" height="50" relative="1" as="geometry">
                        <mxPoint x="240" y="-640" as="sourcePoint"/>
                        <mxPoint x="529.0099999999998" y="-602.5899999999999" as="targetPoint"/>
                        <Array as="points">
                            <mxPoint x="240" y="-610"/>
                        </Array>
                    </mxGeometry>
                </mxCell>
                <mxCell id="203" value="" style="endArrow=none;html=1;entryX=-0.011;entryY=0.559;entryDx=0;entryDy=0;entryPerimeter=0;fillColor=#008a00;strokeColor=#005700;" edge="1" parent="1" target="172">
                    <mxGeometry width="50" height="50" relative="1" as="geometry">
                        <mxPoint x="200" y="-640" as="sourcePoint"/>
                        <mxPoint x="508.47000000000025" y="-599.9699999999998" as="targetPoint"/>
                        <Array as="points">
                            <mxPoint x="200" y="-508"/>
                        </Array>
                    </mxGeometry>
                </mxCell>
                <mxCell id="204" value="" style="endArrow=none;html=1;entryX=-0.011;entryY=0.891;entryDx=0;entryDy=0;entryPerimeter=0;fillColor=#008a00;strokeColor=#005700;" edge="1" parent="1" target="172">
                    <mxGeometry width="50" height="50" relative="1" as="geometry">
                        <mxPoint x="160" y="-640" as="sourcePoint"/>
                        <mxPoint x="509.00999999999976" y="-497.8900000000001" as="targetPoint"/>
                        <Array as="points">
                            <mxPoint x="160" y="-412"/>
                        </Array>
                    </mxGeometry>
                </mxCell>
                <mxCell id="205" value="" style="endArrow=none;html=1;fillColor=#e3c800;strokeColor=#B09500;entryX=-0.019;entryY=0.351;entryDx=0;entryDy=0;entryPerimeter=0;" edge="1" parent="1" target="172">
                    <mxGeometry width="50" height="50" relative="1" as="geometry">
                        <mxPoint x="140" y="-600" as="sourcePoint"/>
                        <mxPoint x="150" y="-596" as="targetPoint"/>
                        <Array as="points">
                            <mxPoint x="140" y="-568"/>
                        </Array>
                    </mxGeometry>
                </mxCell>
                <mxCell id="206" value="" style="endArrow=none;html=1;fillColor=#e3c800;strokeColor=#B09500;entryX=0.001;entryY=0.84;entryDx=0;entryDy=0;entryPerimeter=0;" edge="1" parent="1" target="172">
                    <mxGeometry width="50" height="50" relative="1" as="geometry">
                        <mxPoint x="100" y="-600" as="sourcePoint"/>
                        <mxPoint x="480" y="-460" as="targetPoint"/>
                        <Array as="points">
                            <mxPoint x="100" y="-430"/>
                        </Array>
                    </mxGeometry>
                </mxCell>
                <mxCell id="207" style="edgeStyle=none;html=1;exitX=1;exitY=0.5;exitDx=0;exitDy=0;entryX=0;entryY=0.25;entryDx=0;entryDy=0;endArrow=none;endFill=0;" edge="1" parent="1" source="209" target="216">
                    <mxGeometry relative="1" as="geometry"/>
                </mxCell>
                <mxCell id="208" style="edgeStyle=none;html=1;exitX=0;exitY=0.75;exitDx=0;exitDy=0;endArrow=none;endFill=0;" edge="1" parent="1" source="209">
                    <mxGeometry relative="1" as="geometry">
                        <mxPoint x="-500" y="-520" as="targetPoint"/>
                    </mxGeometry>
                </mxCell>
                <mxCell id="209" value="" style="whiteSpace=wrap;html=1;aspect=fixed;" vertex="1" parent="1">
                    <mxGeometry x="-340" y="-580" width="80" height="80" as="geometry"/>
                </mxCell>
                <mxCell id="210" value="1" style="text;html=1;align=center;verticalAlign=middle;resizable=0;points=[];autosize=1;strokeColor=none;" vertex="1" parent="1">
                    <mxGeometry x="-330" y="-580" width="20" height="20" as="geometry"/>
                </mxCell>
                <mxCell id="211" value="0" style="text;html=1;align=center;verticalAlign=middle;resizable=0;points=[];autosize=1;strokeColor=none;" vertex="1" parent="1">
                    <mxGeometry x="-330" y="-520" width="20" height="20" as="geometry"/>
                </mxCell>
                <mxCell id="212" value="&lt;font style=&quot;font-size: 23px&quot;&gt;ST[6:0] &amp;lt; 50&lt;/font&gt;" style="text;html=1;align=center;verticalAlign=middle;resizable=0;points=[];autosize=1;strokeColor=none;" vertex="1" parent="1">
                    <mxGeometry x="-360" y="-320" width="140" height="20" as="geometry"/>
                </mxCell>
                <mxCell id="213" value="" style="endArrow=none;html=1;fontColor=#FFFFFF;exitX=0.444;exitY=1.433;exitDx=0;exitDy=0;exitPerimeter=0;entryX=0.5;entryY=1;entryDx=0;entryDy=0;" edge="1" parent="1" source="212" target="209">
                    <mxGeometry width="50" height="50" relative="1" as="geometry">
                        <mxPoint x="-290" y="-650" as="sourcePoint"/>
                        <mxPoint x="-290" y="-400" as="targetPoint"/>
                    </mxGeometry>
                </mxCell>
                <mxCell id="214" style="edgeStyle=none;html=1;exitX=0.5;exitY=1;exitDx=0;exitDy=0;entryX=0.571;entryY=0.017;entryDx=0;entryDy=0;entryPerimeter=0;endArrow=none;endFill=0;" edge="1" parent="1" source="216" target="219">
                    <mxGeometry relative="1" as="geometry"/>
                </mxCell>
                <mxCell id="215" style="edgeStyle=none;html=1;exitX=1;exitY=0.5;exitDx=0;exitDy=0;entryX=0;entryY=0.624;entryDx=0;entryDy=0;entryPerimeter=0;endArrow=none;endFill=0;gradientColor=#ea6b66;fillColor=#f8cecc;strokeColor=#b85450;" edge="1" parent="1" source="216" target="172">
                    <mxGeometry relative="1" as="geometry"/>
                </mxCell>
                <mxCell id="216" value="" style="whiteSpace=wrap;html=1;aspect=fixed;" vertex="1" parent="1">
                    <mxGeometry x="-180" y="-530" width="80" height="80" as="geometry"/>
                </mxCell>
                <mxCell id="217" value="0" style="text;html=1;align=center;verticalAlign=middle;resizable=0;points=[];autosize=1;strokeColor=none;" vertex="1" parent="1">
                    <mxGeometry x="-170" y="-530" width="20" height="20" as="geometry"/>
                </mxCell>
                <mxCell id="218" value="1" style="text;html=1;align=center;verticalAlign=middle;resizable=0;points=[];autosize=1;strokeColor=none;" vertex="1" parent="1">
                    <mxGeometry x="-170" y="-470" width="20" height="20" as="geometry"/>
                </mxCell>
                <mxCell id="219" value="&lt;font style=&quot;font-size: 23px&quot;&gt;ST[6:0] &amp;gt; 70&lt;/font&gt;" style="text;html=1;align=center;verticalAlign=middle;resizable=0;points=[];autosize=1;strokeColor=none;" vertex="1" parent="1">
                    <mxGeometry x="-220" y="-360" width="140" height="20" as="geometry"/>
                </mxCell>
                <mxCell id="259" value="" style="edgeStyle=none;html=1;fontSize=23;fontColor=#000000;endArrow=none;endFill=0;" edge="1" parent="1" source="220" target="192">
                    <mxGeometry relative="1" as="geometry"/>
                </mxCell>
                <mxCell id="220" value="&lt;font style=&quot;font-size: 23px&quot;&gt;0&lt;/font&gt;" style="text;html=1;align=center;verticalAlign=middle;resizable=0;points=[];autosize=1;strokeColor=none;" vertex="1" parent="1">
                    <mxGeometry x="-490" y="-540" width="30" height="20" as="geometry"/>
                </mxCell>
                <mxCell id="221" style="edgeStyle=none;html=1;exitX=0;exitY=0.25;exitDx=0;exitDy=0;endArrow=none;endFill=0;" edge="1" parent="1" source="222">
                    <mxGeometry relative="1" as="geometry">
                        <mxPoint x="-420" y="-840" as="targetPoint"/>
                    </mxGeometry>
                </mxCell>
                <mxCell id="222" value="" style="whiteSpace=wrap;html=1;aspect=fixed;" vertex="1" parent="1">
                    <mxGeometry x="-200" y="-860" width="80" height="80" as="geometry"/>
                </mxCell>
                <mxCell id="223" value="1" style="text;html=1;align=center;verticalAlign=middle;resizable=0;points=[];autosize=1;strokeColor=none;" vertex="1" parent="1">
                    <mxGeometry x="-190" y="-860" width="20" height="20" as="geometry"/>
                </mxCell>
                <mxCell id="224" value="0" style="text;html=1;align=center;verticalAlign=middle;resizable=0;points=[];autosize=1;strokeColor=none;" vertex="1" parent="1">
                    <mxGeometry x="-190" y="-800" width="20" height="20" as="geometry"/>
                </mxCell>
                <mxCell id="225" value="&lt;font style=&quot;font-size: 23px&quot;&gt;SFD&lt;/font&gt;" style="text;html=1;align=center;verticalAlign=middle;resizable=0;points=[];autosize=1;strokeColor=none;" vertex="1" parent="1">
                    <mxGeometry x="-200" y="-970" width="60" height="20" as="geometry"/>
                </mxCell>
                <mxCell id="226" value="" style="endArrow=none;html=1;fontColor=#FFFFFF;entryX=0.5;entryY=0;entryDx=0;entryDy=0;exitX=0.689;exitY=1.05;exitDx=0;exitDy=0;exitPerimeter=0;" edge="1" parent="1" source="225" target="222">
                    <mxGeometry width="50" height="50" relative="1" as="geometry">
                        <mxPoint x="-310" y="-944" as="sourcePoint"/>
                        <mxPoint x="-316" y="-870" as="targetPoint"/>
                    </mxGeometry>
                </mxCell>
                <mxCell id="227" style="edgeStyle=none;html=1;exitX=0;exitY=0.75;exitDx=0;exitDy=0;endArrow=none;endFill=0;" edge="1" parent="1" source="222">
                    <mxGeometry relative="1" as="geometry">
                        <mxPoint x="-420" y="-800" as="targetPoint"/>
                        <mxPoint x="-360" y="-781.6700000000001" as="sourcePoint"/>
                    </mxGeometry>
                </mxCell>
                <mxCell id="228" value="&lt;font style=&quot;font-size: 23px&quot;&gt;0&lt;/font&gt;" style="text;html=1;align=center;verticalAlign=middle;resizable=0;points=[];autosize=1;strokeColor=none;" vertex="1" parent="1">
                    <mxGeometry x="-415" y="-815" width="30" height="20" as="geometry"/>
                </mxCell>
                <mxCell id="229" value="&lt;span style=&quot;font-size: 23px&quot;&gt;100000&lt;br&gt;&lt;/span&gt;" style="text;html=1;align=center;verticalAlign=middle;resizable=0;points=[];autosize=1;strokeColor=none;fillColor=#1ba1e2;fontColor=#ffffff;" vertex="1" parent="1">
                    <mxGeometry x="-415" y="-860" width="90" height="20" as="geometry"/>
                </mxCell>
                <mxCell id="230" style="edgeStyle=none;html=1;exitX=0;exitY=0.25;exitDx=0;exitDy=0;endArrow=none;endFill=0;" edge="1" parent="1" source="231">
                    <mxGeometry relative="1" as="geometry">
                        <mxPoint x="-765" y="-775" as="targetPoint"/>
                    </mxGeometry>
                </mxCell>
                <mxCell id="231" value="" style="whiteSpace=wrap;html=1;aspect=fixed;" vertex="1" parent="1">
                    <mxGeometry x="-545" y="-795" width="80" height="80" as="geometry"/>
                </mxCell>
                <mxCell id="232" value="1" style="text;html=1;align=center;verticalAlign=middle;resizable=0;points=[];autosize=1;strokeColor=none;" vertex="1" parent="1">
                    <mxGeometry x="-535" y="-795" width="20" height="20" as="geometry"/>
                </mxCell>
                <mxCell id="233" value="0" style="text;html=1;align=center;verticalAlign=middle;resizable=0;points=[];autosize=1;strokeColor=none;" vertex="1" parent="1">
                    <mxGeometry x="-535" y="-735" width="20" height="20" as="geometry"/>
                </mxCell>
                <mxCell id="234" value="&lt;font style=&quot;font-size: 23px&quot;&gt;SRD&lt;/font&gt;" style="text;html=1;align=center;verticalAlign=middle;resizable=0;points=[];autosize=1;strokeColor=none;" vertex="1" parent="1">
                    <mxGeometry x="-545" y="-905" width="60" height="20" as="geometry"/>
                </mxCell>
                <mxCell id="235" value="" style="endArrow=none;html=1;fontColor=#FFFFFF;entryX=0.5;entryY=0;entryDx=0;entryDy=0;exitX=0.689;exitY=1.05;exitDx=0;exitDy=0;exitPerimeter=0;" edge="1" parent="1" source="234" target="231">
                    <mxGeometry width="50" height="50" relative="1" as="geometry">
                        <mxPoint x="-655" y="-879" as="sourcePoint"/>
                        <mxPoint x="-661" y="-805" as="targetPoint"/>
                    </mxGeometry>
                </mxCell>
                <mxCell id="236" style="edgeStyle=none;html=1;exitX=0;exitY=0.75;exitDx=0;exitDy=0;endArrow=none;endFill=0;" edge="1" parent="1" source="231">
                    <mxGeometry relative="1" as="geometry">
                        <mxPoint x="-765" y="-735" as="targetPoint"/>
                        <mxPoint x="-705" y="-716.6700000000001" as="sourcePoint"/>
                    </mxGeometry>
                </mxCell>
                <mxCell id="237" value="&lt;font style=&quot;font-size: 23px&quot;&gt;0&lt;/font&gt;" style="text;html=1;align=center;verticalAlign=middle;resizable=0;points=[];autosize=1;strokeColor=none;" vertex="1" parent="1">
                    <mxGeometry x="-760" y="-750" width="30" height="20" as="geometry"/>
                </mxCell>
                <mxCell id="238" value="&lt;span style=&quot;font-size: 23px&quot;&gt;010000&lt;/span&gt;" style="text;html=1;align=center;verticalAlign=middle;resizable=0;points=[];autosize=1;strokeColor=#6F0000;fillColor=#a20025;fontColor=#ffffff;" vertex="1" parent="1">
                    <mxGeometry x="-790" y="-795" width="90" height="20" as="geometry"/>
                </mxCell>
                <mxCell id="239" style="edgeStyle=none;html=1;exitX=0;exitY=0.25;exitDx=0;exitDy=0;endArrow=none;endFill=0;" edge="1" parent="1" source="240">
                    <mxGeometry relative="1" as="geometry">
                        <mxPoint x="-1075" y="-690" as="targetPoint"/>
                    </mxGeometry>
                </mxCell>
                <mxCell id="240" value="" style="whiteSpace=wrap;html=1;aspect=fixed;" vertex="1" parent="1">
                    <mxGeometry x="-855" y="-690" width="80" height="80" as="geometry"/>
                </mxCell>
                <mxCell id="241" value="1" style="text;html=1;align=center;verticalAlign=middle;resizable=0;points=[];autosize=1;strokeColor=none;" vertex="1" parent="1">
                    <mxGeometry x="-845" y="-690" width="20" height="20" as="geometry"/>
                </mxCell>
                <mxCell id="242" value="0" style="text;html=1;align=center;verticalAlign=middle;resizable=0;points=[];autosize=1;strokeColor=none;" vertex="1" parent="1">
                    <mxGeometry x="-845" y="-630" width="20" height="20" as="geometry"/>
                </mxCell>
                <mxCell id="243" value="&lt;font style=&quot;font-size: 23px&quot;&gt;SFA&lt;/font&gt;" style="text;html=1;align=center;verticalAlign=middle;resizable=0;points=[];autosize=1;strokeColor=none;" vertex="1" parent="1">
                    <mxGeometry x="-855" y="-820" width="60" height="20" as="geometry"/>
                </mxCell>
                <mxCell id="244" value="" style="endArrow=none;html=1;fontColor=#FFFFFF;entryX=0.5;entryY=0;entryDx=0;entryDy=0;exitX=0.689;exitY=1.05;exitDx=0;exitDy=0;exitPerimeter=0;" edge="1" parent="1" source="243" target="240">
                    <mxGeometry width="50" height="50" relative="1" as="geometry">
                        <mxPoint x="-965" y="-794" as="sourcePoint"/>
                        <mxPoint x="-971" y="-720" as="targetPoint"/>
                    </mxGeometry>
                </mxCell>
                <mxCell id="245" style="edgeStyle=none;html=1;exitX=0;exitY=0.75;exitDx=0;exitDy=0;endArrow=none;endFill=0;" edge="1" parent="1" source="240">
                    <mxGeometry relative="1" as="geometry">
                        <mxPoint x="-1075" y="-650" as="targetPoint"/>
                        <mxPoint x="-1015" y="-631.6700000000001" as="sourcePoint"/>
                    </mxGeometry>
                </mxCell>
                <mxCell id="246" value="&lt;font style=&quot;font-size: 23px&quot;&gt;0&lt;/font&gt;" style="text;html=1;align=center;verticalAlign=middle;resizable=0;points=[];autosize=1;strokeColor=none;" vertex="1" parent="1">
                    <mxGeometry x="-1070" y="-665" width="30" height="20" as="geometry"/>
                </mxCell>
                <mxCell id="247" value="&lt;span style=&quot;font-size: 23px&quot;&gt;001000&lt;/span&gt;" style="text;html=1;align=center;verticalAlign=middle;resizable=0;points=[];autosize=1;strokeColor=#005700;fillColor=#008a00;fontColor=#ffffff;" vertex="1" parent="1">
                    <mxGeometry x="-1100" y="-710" width="90" height="20" as="geometry"/>
                </mxCell>
                <mxCell id="248" style="edgeStyle=none;html=1;exitX=0;exitY=0.25;exitDx=0;exitDy=0;endArrow=none;endFill=0;" edge="1" parent="1" source="249">
                    <mxGeometry relative="1" as="geometry">
                        <mxPoint x="-1390" y="-610" as="targetPoint"/>
                    </mxGeometry>
                </mxCell>
                <mxCell id="249" value="" style="whiteSpace=wrap;html=1;aspect=fixed;" vertex="1" parent="1">
                    <mxGeometry x="-1170" y="-630" width="80" height="80" as="geometry"/>
                </mxCell>
                <mxCell id="250" value="1" style="text;html=1;align=center;verticalAlign=middle;resizable=0;points=[];autosize=1;strokeColor=none;" vertex="1" parent="1">
                    <mxGeometry x="-1160" y="-630" width="20" height="20" as="geometry"/>
                </mxCell>
                <mxCell id="251" value="0" style="text;html=1;align=center;verticalAlign=middle;resizable=0;points=[];autosize=1;strokeColor=none;" vertex="1" parent="1">
                    <mxGeometry x="-1160" y="-570" width="20" height="20" as="geometry"/>
                </mxCell>
                <mxCell id="252" value="&lt;font style=&quot;font-size: 23px&quot;&gt;SW&lt;/font&gt;" style="text;html=1;align=center;verticalAlign=middle;resizable=0;points=[];autosize=1;strokeColor=none;" vertex="1" parent="1">
                    <mxGeometry x="-1165" y="-735" width="50" height="20" as="geometry"/>
                </mxCell>
                <mxCell id="253" value="" style="endArrow=none;html=1;fontColor=#FFFFFF;entryX=0.5;entryY=0;entryDx=0;entryDy=0;exitX=0.689;exitY=1.05;exitDx=0;exitDy=0;exitPerimeter=0;" edge="1" parent="1" source="252" target="249">
                    <mxGeometry width="50" height="50" relative="1" as="geometry">
                        <mxPoint x="-1270" y="-709" as="sourcePoint"/>
                        <mxPoint x="-1276" y="-635" as="targetPoint"/>
                    </mxGeometry>
                </mxCell>
                <mxCell id="254" style="edgeStyle=none;html=1;exitX=0;exitY=0.75;exitDx=0;exitDy=0;endArrow=none;endFill=0;" edge="1" parent="1" source="249">
                    <mxGeometry relative="1" as="geometry">
                        <mxPoint x="-1390" y="-570" as="targetPoint"/>
                        <mxPoint x="-1320" y="-546.6700000000001" as="sourcePoint"/>
                    </mxGeometry>
                </mxCell>
                <mxCell id="255" value="&lt;font style=&quot;font-size: 23px&quot;&gt;0&lt;/font&gt;" style="text;html=1;align=center;verticalAlign=middle;resizable=0;points=[];autosize=1;strokeColor=none;" vertex="1" parent="1">
                    <mxGeometry x="-1320" y="-590" width="30" height="20" as="geometry"/>
                </mxCell>
                <mxCell id="256" value="&lt;span style=&quot;color: rgb(255 , 255 , 255) ; font-size: 23px&quot;&gt;000100&lt;/span&gt;" style="text;html=1;align=center;verticalAlign=middle;resizable=0;points=[];autosize=1;strokeColor=#B09500;fillColor=#e3c800;fontColor=#000000;" vertex="1" parent="1">
                    <mxGeometry x="-1350" y="-640" width="90" height="20" as="geometry"/>
                </mxCell>
                <mxCell id="257" value="" style="endArrow=none;html=1;fontColor=#000000;entryX=0.5;entryY=1;entryDx=0;entryDy=0;" edge="1" parent="1" target="172">
                    <mxGeometry width="50" height="50" relative="1" as="geometry">
                        <mxPoint x="530" y="-120" as="sourcePoint"/>
                        <mxPoint x="460" y="-250" as="targetPoint"/>
                    </mxGeometry>
                </mxCell>
            </root>
        </mxGraphModel>
    </diagram>
</mxfile>